<svg width="366" height="433" viewBox="0 0 366 433" fill="none" xmlns="http://www.w3.org/2000/svg">
<g filter="url(#filter0_d_111_399)">
<rect x="48" y="24.8872" width="270" height="335.895" rx="4" fill="white"/>
</g>
<ellipse cx="130" cy="103.135" rx="50" ry="47.7123" fill="#FFF2E6"/>
<path d="M87.128 194.336C86.416 194.336 85.684 194.276 84.932 194.156C84.188 194.044 83.488 193.896 82.832 193.712C82.184 193.528 81.656 193.336 81.248 193.136L81.536 189.668C82.088 189.98 82.664 190.248 83.264 190.472C83.872 190.688 84.476 190.856 85.076 190.976C85.684 191.096 86.264 191.156 86.816 191.156C87.368 191.156 87.848 191.088 88.256 190.952C88.664 190.816 88.98 190.612 89.204 190.34C89.428 190.06 89.54 189.7 89.54 189.26C89.54 188.812 89.392 188.444 89.096 188.156C88.808 187.86 88.392 187.604 87.848 187.388C87.304 187.164 86.656 186.944 85.904 186.728C84.864 186.424 83.976 186.072 83.24 185.672C82.504 185.264 81.94 184.744 81.548 184.112C81.164 183.472 80.972 182.652 80.972 181.652C80.972 180.652 81.192 179.772 81.632 179.012C82.072 178.244 82.736 177.644 83.624 177.212C84.512 176.78 85.636 176.564 86.996 176.564C87.532 176.564 88.068 176.6 88.604 176.672C89.14 176.736 89.66 176.824 90.164 176.936C90.676 177.048 91.148 177.176 91.58 177.32C92.012 177.464 92.388 177.616 92.708 177.776L92.408 181.256C91.896 180.936 91.364 180.668 90.812 180.452C90.26 180.236 89.72 180.072 89.192 179.96C88.664 179.848 88.184 179.792 87.752 179.792C87.264 179.792 86.82 179.856 86.42 179.984C86.028 180.112 85.716 180.308 85.484 180.572C85.252 180.836 85.136 181.168 85.136 181.568C85.136 181.96 85.244 182.292 85.46 182.564C85.684 182.828 86.024 183.064 86.48 183.272C86.944 183.472 87.54 183.68 88.268 183.896C89.636 184.304 90.716 184.732 91.508 185.18C92.3 185.62 92.86 186.152 93.188 186.776C93.524 187.4 93.692 188.184 93.692 189.128C93.692 190.176 93.464 191.092 93.008 191.876C92.552 192.652 91.84 193.256 90.872 193.688C89.904 194.12 88.656 194.336 87.128 194.336ZM101.602 194.288C100.242 194.288 99.0901 194.02 98.1461 193.484C97.2021 192.94 96.4821 192.2 95.9861 191.264C95.4901 190.328 95.2421 189.26 95.2421 188.06C95.2421 186.852 95.4701 185.772 95.9261 184.82C96.3901 183.86 97.0741 183.108 97.9781 182.564C98.8901 182.012 100.022 181.736 101.374 181.736C101.854 181.736 102.326 181.772 102.79 181.844C103.262 181.916 103.706 182.016 104.122 182.144C104.538 182.272 104.91 182.424 105.238 182.6L104.974 185.696C104.518 185.432 104.098 185.236 103.714 185.108C103.338 184.972 102.998 184.884 102.694 184.844C102.39 184.796 102.118 184.772 101.878 184.772C100.974 184.772 100.25 185.06 99.7061 185.636C99.1701 186.204 98.9021 186.976 98.9021 187.952C98.9021 188.616 99.0341 189.204 99.2981 189.716C99.5701 190.22 99.9661 190.616 100.486 190.904C101.014 191.192 101.662 191.336 102.43 191.336C102.726 191.336 103.022 191.308 103.318 191.252C103.614 191.196 103.906 191.112 104.194 191C104.49 190.888 104.77 190.744 105.034 190.568L105.214 193.664C104.942 193.784 104.626 193.892 104.266 193.988C103.914 194.076 103.518 194.148 103.078 194.204C102.638 194.26 102.146 194.288 101.602 194.288ZM107.587 194.024C107.587 193.168 107.587 192.34 107.587 191.54C107.587 190.732 107.587 189.832 107.587 188.84V187.64C107.587 186.848 107.587 186.14 107.587 185.516C107.587 184.884 107.587 184.292 107.587 183.74C107.587 183.18 107.587 182.616 107.587 182.048L111.175 181.94C111.175 182.516 111.175 183.088 111.175 183.656C111.175 184.224 111.175 184.828 111.175 185.468C111.175 186.108 111.175 186.832 111.175 187.64V188.84C111.175 189.832 111.175 190.732 111.175 191.54C111.175 192.34 111.175 193.168 111.175 194.024H107.587ZM109.351 180.2C108.687 180.2 108.155 180.044 107.755 179.732C107.363 179.412 107.167 178.896 107.167 178.184C107.167 177.544 107.363 177.056 107.755 176.72C108.155 176.376 108.695 176.204 109.375 176.204C110.055 176.204 110.587 176.384 110.971 176.744C111.363 177.096 111.559 177.576 111.559 178.184C111.559 178.896 111.363 179.412 110.971 179.732C110.579 180.044 110.039 180.2 109.351 180.2ZM120.195 194.336C118.651 194.336 117.387 194.064 116.403 193.52C115.427 192.976 114.707 192.228 114.243 191.276C113.787 190.324 113.559 189.232 113.559 188C113.559 186.768 113.775 185.68 114.207 184.736C114.639 183.792 115.283 183.056 116.139 182.528C117.003 181.992 118.075 181.724 119.355 181.724C120.443 181.724 121.375 181.92 122.151 182.312C122.927 182.696 123.523 183.28 123.939 184.064C124.355 184.848 124.563 185.836 124.563 187.028C124.563 187.348 124.555 187.632 124.539 187.88C124.523 188.128 124.495 188.376 124.455 188.624L121.383 187.46C121.399 187.356 121.411 187.248 121.419 187.136C121.427 187.024 121.431 186.92 121.431 186.824C121.431 186.016 121.239 185.384 120.855 184.928C120.479 184.464 119.991 184.232 119.391 184.232C118.935 184.232 118.531 184.368 118.179 184.64C117.827 184.904 117.551 185.276 117.351 185.756C117.151 186.236 117.051 186.808 117.051 187.472V188.06C117.051 188.756 117.175 189.352 117.423 189.848C117.679 190.344 118.071 190.724 118.599 190.988C119.127 191.252 119.803 191.384 120.627 191.384C120.947 191.384 121.315 191.356 121.731 191.3C122.155 191.236 122.583 191.144 123.015 191.024C123.455 190.896 123.863 190.736 124.239 190.544L124.359 193.568C124.047 193.712 123.683 193.844 123.267 193.964C122.859 194.076 122.395 194.164 121.875 194.228C121.355 194.3 120.795 194.336 120.195 194.336ZM114.939 188.624V186.704L122.367 186.548L124.455 187.136V188.624H114.939ZM126.828 194.024C126.828 193.168 126.828 192.34 126.828 191.54C126.828 190.732 126.828 189.832 126.828 188.84V187.64C126.828 186.72 126.828 185.796 126.828 184.868C126.828 183.94 126.828 183 126.828 182.048L129.84 181.868L129.996 183.956H130.296C130.568 183.564 130.896 183.2 131.28 182.864C131.664 182.52 132.104 182.244 132.6 182.036C133.104 181.828 133.676 181.724 134.316 181.724C135.516 181.724 136.424 182.08 137.04 182.792C137.656 183.496 137.964 184.552 137.964 185.96C137.964 186.488 137.964 186.98 137.964 187.436C137.964 187.884 137.964 188.352 137.964 188.84C137.964 189.816 137.964 190.712 137.964 191.528C137.964 192.336 137.964 193.168 137.964 194.024H134.388C134.388 193.168 134.388 192.34 134.388 191.54C134.388 190.74 134.388 189.904 134.388 189.032V187.112C134.388 186.408 134.272 185.88 134.04 185.528C133.808 185.168 133.392 184.988 132.792 184.988C132.448 184.988 132.132 185.06 131.844 185.204C131.556 185.34 131.292 185.528 131.052 185.768C130.812 186 130.6 186.26 130.416 186.548V189.032C130.416 189.928 130.416 190.772 130.416 191.564C130.416 192.348 130.416 193.168 130.416 194.024H126.828ZM146.415 194.288C145.055 194.288 143.903 194.02 142.959 193.484C142.015 192.94 141.295 192.2 140.799 191.264C140.303 190.328 140.055 189.26 140.055 188.06C140.055 186.852 140.283 185.772 140.739 184.82C141.203 183.86 141.887 183.108 142.791 182.564C143.703 182.012 144.835 181.736 146.187 181.736C146.667 181.736 147.139 181.772 147.603 181.844C148.075 181.916 148.519 182.016 148.935 182.144C149.351 182.272 149.723 182.424 150.051 182.6L149.787 185.696C149.331 185.432 148.911 185.236 148.527 185.108C148.151 184.972 147.811 184.884 147.507 184.844C147.203 184.796 146.931 184.772 146.691 184.772C145.787 184.772 145.063 185.06 144.519 185.636C143.983 186.204 143.715 186.976 143.715 187.952C143.715 188.616 143.847 189.204 144.111 189.716C144.383 190.22 144.779 190.616 145.299 190.904C145.827 191.192 146.475 191.336 147.243 191.336C147.539 191.336 147.835 191.308 148.131 191.252C148.427 191.196 148.719 191.112 149.007 191C149.303 190.888 149.583 190.744 149.847 190.568L150.027 193.664C149.755 193.784 149.439 193.892 149.079 193.988C148.727 194.076 148.331 194.148 147.891 194.204C147.451 194.26 146.959 194.288 146.415 194.288ZM158.328 194.336C156.784 194.336 155.52 194.064 154.536 193.52C153.56 192.976 152.84 192.228 152.376 191.276C151.92 190.324 151.692 189.232 151.692 188C151.692 186.768 151.908 185.68 152.34 184.736C152.772 183.792 153.416 183.056 154.272 182.528C155.136 181.992 156.208 181.724 157.488 181.724C158.576 181.724 159.508 181.92 160.284 182.312C161.06 182.696 161.656 183.28 162.072 184.064C162.488 184.848 162.696 185.836 162.696 187.028C162.696 187.348 162.688 187.632 162.672 187.88C162.656 188.128 162.628 188.376 162.588 188.624L159.516 187.46C159.532 187.356 159.544 187.248 159.552 187.136C159.56 187.024 159.564 186.92 159.564 186.824C159.564 186.016 159.372 185.384 158.988 184.928C158.612 184.464 158.124 184.232 157.524 184.232C157.068 184.232 156.664 184.368 156.312 184.64C155.96 184.904 155.684 185.276 155.484 185.756C155.284 186.236 155.184 186.808 155.184 187.472V188.06C155.184 188.756 155.308 189.352 155.556 189.848C155.812 190.344 156.204 190.724 156.732 190.988C157.26 191.252 157.936 191.384 158.76 191.384C159.08 191.384 159.448 191.356 159.864 191.3C160.288 191.236 160.716 191.144 161.148 191.024C161.588 190.896 161.996 190.736 162.372 190.544L162.492 193.568C162.18 193.712 161.816 193.844 161.4 193.964C160.992 194.076 160.528 194.164 160.008 194.228C159.488 194.3 158.928 194.336 158.328 194.336ZM153.072 188.624V186.704L160.5 186.548L162.588 187.136V188.624H153.072Z" fill="#1D4645"/>
<path d="M85.848 239.821C84.7867 239.821 83.9227 239.64 83.256 239.277C82.5947 238.909 82.1067 238.394 81.792 237.733C81.4827 237.066 81.328 236.29 81.328 235.405C81.328 235.181 81.328 234.893 81.328 234.541C81.328 234.184 81.328 233.789 81.328 233.357C81.328 232.925 81.328 232.49 81.328 232.053C81.328 231.333 81.328 230.677 81.328 230.085C81.328 229.488 81.328 228.872 81.328 228.237H82.768C82.768 228.872 82.768 229.488 82.768 230.085C82.768 230.677 82.768 231.333 82.768 232.053V235.261C82.768 235.949 82.8693 236.541 83.072 237.037C83.2747 237.533 83.6 237.914 84.048 238.181C84.5013 238.442 85.1013 238.573 85.848 238.573C86.6 238.573 87.1973 238.442 87.64 238.181C88.088 237.914 88.4107 237.533 88.608 237.037C88.8053 236.541 88.904 235.944 88.904 235.245V232.053C88.904 231.333 88.904 230.677 88.904 230.085C88.904 229.488 88.904 228.872 88.904 228.237H90.344C90.344 228.872 90.344 229.488 90.344 230.085C90.344 230.677 90.344 231.333 90.344 232.053C90.344 232.49 90.344 232.928 90.344 233.365C90.344 233.797 90.344 234.192 90.344 234.549C90.344 234.906 90.344 235.192 90.344 235.405C90.344 236.29 90.1867 237.066 89.872 237.733C89.5573 238.394 89.0693 238.909 88.408 239.277C87.7467 239.64 86.8933 239.821 85.848 239.821ZM93.0635 239.645C93.0635 239.053 93.0635 238.485 93.0635 237.941C93.0635 237.397 93.0635 236.797 93.0635 236.141V235.341C93.0635 234.754 93.0635 234.154 93.0635 233.541C93.0635 232.928 93.0635 232.317 93.0635 231.709L94.2155 231.629L94.2555 233.101H94.3995C94.5702 232.861 94.7888 232.618 95.0555 232.373C95.3222 232.128 95.6368 231.925 95.9995 231.765C96.3622 231.6 96.7782 231.517 97.2475 231.517C98.0902 231.517 98.7062 231.76 99.0955 232.245C99.4848 232.73 99.6795 233.434 99.6795 234.357C99.6795 234.704 99.6795 235.01 99.6795 235.277C99.6795 235.544 99.6795 235.832 99.6795 236.141C99.6795 236.77 99.6795 237.365 99.6795 237.925C99.6795 238.48 99.6795 239.053 99.6795 239.645H98.3595C98.3595 239.053 98.3595 238.482 98.3595 237.933C98.3595 237.378 98.3595 236.8 98.3595 236.197V234.693C98.3595 234.058 98.2448 233.578 98.0155 233.253C97.7915 232.928 97.3835 232.765 96.7915 232.765C96.4342 232.765 96.1088 232.837 95.8155 232.981C95.5222 233.125 95.2555 233.32 95.0155 233.565C94.7808 233.805 94.5702 234.072 94.3835 234.365V236.197C94.3835 236.821 94.3835 237.405 94.3835 237.949C94.3835 238.488 94.3835 239.053 94.3835 239.645H93.0635ZM105.667 239.821C105.011 239.821 104.433 239.709 103.931 239.485C103.435 239.256 103.019 238.946 102.683 238.557C102.347 238.168 102.091 237.722 101.915 237.221C101.745 236.714 101.659 236.184 101.659 235.629C101.659 234.834 101.819 234.13 102.139 233.517C102.465 232.898 102.923 232.41 103.515 232.053C104.113 231.696 104.822 231.517 105.643 231.517C106.278 231.517 106.841 231.621 107.331 231.829C107.822 232.037 108.238 232.328 108.579 232.701C108.921 233.074 109.179 233.512 109.355 234.013C109.531 234.509 109.619 235.048 109.619 235.629C109.619 236.413 109.459 237.122 109.139 237.757C108.819 238.392 108.363 238.896 107.771 239.269C107.185 239.637 106.483 239.821 105.667 239.821ZM105.667 238.669C106.249 238.669 106.731 238.525 107.115 238.237C107.499 237.949 107.787 237.573 107.979 237.109C108.171 236.645 108.267 236.152 108.267 235.629C108.267 235.032 108.161 234.512 107.947 234.069C107.734 233.626 107.433 233.282 107.043 233.037C106.654 232.792 106.193 232.669 105.659 232.669C105.083 232.669 104.598 232.8 104.203 233.061C103.809 233.322 103.51 233.677 103.307 234.125C103.11 234.573 103.011 235.074 103.011 235.629C103.011 236.152 103.107 236.645 103.299 237.109C103.497 237.573 103.793 237.949 104.187 238.237C104.582 238.525 105.075 238.669 105.667 238.669ZM111.798 239.645C111.798 239.053 111.798 238.485 111.798 237.941C111.798 237.397 111.798 236.797 111.798 236.141V235.341C111.798 234.754 111.798 234.154 111.798 233.541C111.798 232.928 111.798 232.317 111.798 231.709L112.95 231.629L112.99 233.245H113.126C113.345 232.76 113.595 232.394 113.878 232.149C114.166 231.898 114.457 231.73 114.75 231.645C115.043 231.56 115.313 231.517 115.558 231.517C115.707 231.517 115.857 231.528 116.006 231.549C116.155 231.57 116.297 231.605 116.43 231.653L116.31 232.981C116.134 232.949 115.974 232.922 115.83 232.901C115.691 232.88 115.529 232.869 115.342 232.869C115.187 232.869 115.011 232.893 114.814 232.941C114.622 232.984 114.422 233.077 114.214 233.221C114.011 233.36 113.814 233.57 113.622 233.853C113.43 234.13 113.262 234.501 113.118 234.965V236.197C113.118 236.821 113.118 237.405 113.118 237.949C113.118 238.488 113.118 239.053 113.118 239.645H111.798ZM121.197 239.821C120.669 239.821 120.221 239.73 119.853 239.549C119.485 239.362 119.205 239.082 119.013 238.709C118.826 238.33 118.733 237.848 118.733 237.261C118.733 236.797 118.733 236.338 118.733 235.885C118.733 235.426 118.733 234.978 118.733 234.541C118.733 234.098 118.733 233.674 118.733 233.269C118.733 232.858 118.733 232.466 118.733 232.093C118.733 231.549 118.733 231.045 118.733 230.581C118.733 230.117 118.733 229.634 118.733 229.133L120.037 228.845C120.037 229.24 120.037 229.605 120.037 229.941C120.037 230.277 120.037 230.616 120.037 230.957C120.037 231.298 120.037 231.677 120.037 232.093V236.949C120.037 237.52 120.157 237.949 120.397 238.237C120.642 238.525 121.015 238.669 121.516 238.669C121.714 238.669 121.93 238.637 122.165 238.573C122.399 238.504 122.607 238.397 122.789 238.253L122.901 239.413C122.794 239.493 122.65 239.565 122.469 239.629C122.287 239.688 122.087 239.733 121.869 239.765C121.65 239.802 121.426 239.821 121.197 239.821ZM117.205 232.757V231.709H122.821V232.757C122.287 232.757 121.749 232.757 121.205 232.757C120.666 232.757 120.141 232.757 119.629 232.757H119.085H117.205ZM124.751 239.645C124.751 239.053 124.751 238.485 124.751 237.941C124.751 237.397 124.751 236.797 124.751 236.141V231.749C124.751 231.077 124.751 230.424 124.751 229.789C124.751 229.154 124.751 228.536 124.751 227.933L126.071 227.773C126.071 228.408 126.071 229.053 126.071 229.709C126.071 230.36 126.071 231.04 126.071 231.749V233.029H126.215C126.375 232.805 126.58 232.576 126.831 232.341C127.087 232.106 127.388 231.912 127.735 231.757C128.087 231.597 128.487 231.517 128.935 231.517C129.778 231.517 130.394 231.76 130.783 232.245C131.172 232.73 131.367 233.434 131.367 234.357C131.367 234.704 131.367 235.01 131.367 235.277C131.367 235.544 131.367 235.832 131.367 236.141C131.367 236.77 131.367 237.365 131.367 237.925C131.367 238.48 131.367 239.053 131.367 239.645H130.047C130.047 239.053 130.047 238.482 130.047 237.933C130.047 237.378 130.047 236.8 130.047 236.197V234.693C130.047 234.058 129.932 233.578 129.703 233.253C129.479 232.928 129.071 232.765 128.479 232.765C128.122 232.765 127.796 232.837 127.503 232.981C127.21 233.125 126.943 233.32 126.703 233.565C126.468 233.805 126.258 234.072 126.071 234.365V236.197C126.071 236.821 126.071 237.405 126.071 237.949C126.071 238.488 126.071 239.053 126.071 239.645H124.751ZM137.355 239.821C136.699 239.821 136.12 239.709 135.619 239.485C135.123 239.256 134.707 238.946 134.371 238.557C134.035 238.168 133.779 237.722 133.603 237.221C133.432 236.714 133.347 236.184 133.347 235.629C133.347 234.834 133.507 234.13 133.827 233.517C134.152 232.898 134.611 232.41 135.203 232.053C135.8 231.696 136.51 231.517 137.331 231.517C137.966 231.517 138.528 231.621 139.019 231.829C139.51 232.037 139.926 232.328 140.267 232.701C140.608 233.074 140.867 233.512 141.043 234.013C141.219 234.509 141.307 235.048 141.307 235.629C141.307 236.413 141.147 237.122 140.827 237.757C140.507 238.392 140.051 238.896 139.459 239.269C138.872 239.637 138.171 239.821 137.355 239.821ZM137.355 238.669C137.936 238.669 138.419 238.525 138.803 238.237C139.187 237.949 139.475 237.573 139.667 237.109C139.859 236.645 139.955 236.152 139.955 235.629C139.955 235.032 139.848 234.512 139.635 234.069C139.422 233.626 139.12 233.282 138.731 233.037C138.342 232.792 137.88 232.669 137.347 232.669C136.771 232.669 136.286 232.8 135.891 233.061C135.496 233.322 135.198 233.677 134.995 234.125C134.798 234.573 134.699 235.074 134.699 235.629C134.699 236.152 134.795 236.645 134.987 237.109C135.184 237.573 135.48 237.949 135.875 238.237C136.27 238.525 136.763 238.669 137.355 238.669ZM146.013 242.893C145.421 242.893 144.928 242.84 144.533 242.733C144.139 242.626 143.827 242.482 143.597 242.301C143.368 242.12 143.203 241.917 143.101 241.693C143.005 241.474 142.957 241.25 142.957 241.021C142.957 240.664 143.045 240.362 143.221 240.117C143.397 239.877 143.603 239.688 143.837 239.549C144.072 239.41 144.277 239.314 144.453 239.261V239.149C144.363 239.122 144.253 239.066 144.125 238.981C143.997 238.89 143.883 238.765 143.781 238.605C143.68 238.445 143.629 238.242 143.629 237.997C143.629 237.81 143.664 237.637 143.733 237.477C143.808 237.317 143.92 237.176 144.069 237.053C144.219 236.93 144.403 236.824 144.621 236.733V236.613C144.499 236.57 144.341 236.49 144.149 236.373C143.957 236.256 143.763 236.098 143.565 235.901C143.373 235.698 143.211 235.45 143.077 235.157C142.944 234.864 142.877 234.517 142.877 234.117C142.877 233.6 143.003 233.146 143.253 232.757C143.509 232.368 143.869 232.066 144.333 231.853C144.803 231.634 145.352 231.525 145.981 231.525C146.237 231.525 146.459 231.538 146.645 231.565C146.837 231.592 147.035 231.621 147.237 231.653C147.44 231.68 147.688 231.693 147.981 231.693H150.453V232.685C149.925 232.685 149.411 232.685 148.909 232.685C148.408 232.685 147.904 232.685 147.397 232.685L147.773 232.061C148.243 232.285 148.579 232.584 148.781 232.957C148.989 233.325 149.093 233.741 149.093 234.205C149.093 234.728 148.987 235.17 148.773 235.533C148.56 235.89 148.259 236.181 147.869 236.405C147.48 236.624 147.027 236.792 146.509 236.909C145.949 237.042 145.533 237.165 145.261 237.277C144.989 237.384 144.853 237.546 144.853 237.765C144.853 237.92 144.909 238.04 145.021 238.125C145.133 238.21 145.309 238.272 145.549 238.309C145.795 238.346 146.117 238.365 146.517 238.365H146.861C147.597 238.365 148.2 238.424 148.669 238.541C149.139 238.653 149.485 238.842 149.709 239.109C149.939 239.376 150.053 239.73 150.053 240.173C150.053 240.632 149.933 241.032 149.693 241.373C149.453 241.72 149.133 242.005 148.733 242.229C148.333 242.453 147.896 242.618 147.421 242.725C146.952 242.837 146.483 242.893 146.013 242.893ZM146.125 241.821C146.712 241.821 147.203 241.738 147.597 241.573C147.997 241.413 148.296 241.221 148.493 240.997C148.691 240.773 148.789 240.565 148.789 240.373C148.789 240.17 148.731 240.002 148.613 239.869C148.496 239.736 148.277 239.637 147.957 239.573C147.637 239.504 147.173 239.469 146.565 239.469H146.269C145.928 239.474 145.597 239.53 145.277 239.637C144.957 239.744 144.693 239.89 144.485 240.077C144.283 240.269 144.181 240.49 144.181 240.741C144.181 240.88 144.213 241.013 144.277 241.141C144.347 241.274 144.456 241.392 144.605 241.493C144.76 241.594 144.96 241.674 145.205 241.733C145.456 241.792 145.763 241.821 146.125 241.821ZM145.893 235.973C146.091 235.941 146.301 235.893 146.525 235.829C146.755 235.76 146.968 235.664 147.165 235.541C147.368 235.418 147.533 235.256 147.661 235.053C147.789 234.85 147.853 234.594 147.853 234.285C147.853 233.901 147.755 233.589 147.557 233.349C147.36 233.109 147.115 232.933 146.821 232.821C146.533 232.704 146.253 232.645 145.981 232.645C145.656 232.645 145.352 232.704 145.069 232.821C144.787 232.933 144.557 233.106 144.381 233.341C144.205 233.57 144.117 233.861 144.117 234.213C144.117 234.565 144.203 234.864 144.373 235.109C144.549 235.354 144.771 235.549 145.037 235.693C145.309 235.837 145.595 235.93 145.893 235.973ZM152.157 239.645C152.157 239.053 152.157 238.485 152.157 237.941C152.157 237.397 152.157 236.797 152.157 236.141V235.341C152.157 234.754 152.157 234.154 152.157 233.541C152.157 232.928 152.157 232.317 152.157 231.709L153.309 231.629L153.349 233.245H153.485C153.704 232.76 153.955 232.394 154.237 232.149C154.525 231.898 154.816 231.73 155.109 231.645C155.403 231.56 155.672 231.517 155.917 231.517C156.067 231.517 156.216 231.528 156.365 231.549C156.515 231.57 156.656 231.605 156.789 231.653L156.669 232.981C156.493 232.949 156.333 232.922 156.189 232.901C156.051 232.88 155.888 232.869 155.701 232.869C155.547 232.869 155.371 232.893 155.173 232.941C154.981 232.984 154.781 233.077 154.573 233.221C154.371 233.36 154.173 233.57 153.981 233.853C153.789 234.13 153.621 234.501 153.477 234.965V236.197C153.477 236.821 153.477 237.405 153.477 237.949C153.477 238.488 153.477 239.053 153.477 239.645H152.157ZM160.248 239.805C159.773 239.805 159.357 239.714 159 239.533C158.642 239.346 158.362 239.082 158.16 238.741C157.962 238.4 157.864 237.989 157.864 237.509C157.864 237.077 157.941 236.714 158.096 236.421C158.25 236.122 158.453 235.88 158.704 235.693C158.954 235.506 159.232 235.362 159.536 235.261C159.84 235.154 160.144 235.074 160.448 235.021L162.936 234.589C162.957 234.05 162.885 233.645 162.72 233.373C162.56 233.096 162.333 232.909 162.04 232.813C161.746 232.717 161.421 232.669 161.064 232.669C160.882 232.669 160.688 232.682 160.48 232.709C160.272 232.736 160.05 232.778 159.816 232.837C159.586 232.89 159.344 232.96 159.088 233.045C158.832 233.13 158.562 233.234 158.28 233.357L158.208 232.149C158.4 232.069 158.616 231.992 158.856 231.917C159.101 231.842 159.36 231.776 159.632 231.717C159.909 231.653 160.192 231.605 160.48 231.573C160.768 231.541 161.058 231.525 161.352 231.525C161.944 231.525 162.453 231.618 162.88 231.805C163.312 231.992 163.642 232.285 163.872 232.685C164.101 233.085 164.216 233.608 164.216 234.253C164.216 234.498 164.216 234.81 164.216 235.189C164.216 235.568 164.216 235.928 164.216 236.269V237.301C164.216 237.664 164.216 238.034 164.216 238.413C164.216 238.786 164.216 239.197 164.216 239.645H163.016L162.944 238.517H162.816C162.65 238.73 162.442 238.936 162.192 239.133C161.941 239.33 161.65 239.493 161.32 239.621C160.994 239.744 160.637 239.805 160.248 239.805ZM160.632 238.709C160.914 238.709 161.197 238.65 161.48 238.533C161.762 238.416 162.026 238.242 162.272 238.013C162.522 237.778 162.733 237.485 162.904 237.133L162.912 235.421C162.826 235.469 162.712 235.517 162.568 235.565C162.429 235.613 162.218 235.669 161.936 235.733C161.658 235.792 161.272 235.866 160.776 235.957C160.472 236.01 160.202 236.098 159.968 236.221C159.733 236.338 159.546 236.501 159.408 236.709C159.274 236.912 159.208 237.16 159.208 237.453C159.208 237.912 159.344 238.237 159.616 238.429C159.893 238.616 160.232 238.709 160.632 238.709ZM166.767 242.765C166.767 242.178 166.767 241.602 166.767 241.037C166.767 240.477 166.767 239.869 166.767 239.213V235.341C166.767 234.754 166.767 234.154 166.767 233.541C166.767 232.928 166.767 232.317 166.767 231.709L167.967 231.629L167.999 232.661H168.135C168.295 232.453 168.497 232.264 168.743 232.093C168.988 231.917 169.268 231.778 169.583 231.677C169.903 231.57 170.252 231.517 170.631 231.517C171.356 231.517 171.972 231.698 172.479 232.061C172.991 232.418 173.38 232.909 173.647 233.533C173.913 234.157 174.047 234.864 174.047 235.653C174.047 236.394 173.921 237.082 173.671 237.717C173.425 238.346 173.049 238.856 172.543 239.245C172.041 239.629 171.412 239.821 170.655 239.821C170.303 239.821 169.977 239.773 169.679 239.677C169.38 239.586 169.108 239.456 168.863 239.285C168.623 239.109 168.404 238.896 168.207 238.645H168.087V239.269C168.087 239.893 168.087 240.474 168.087 241.013C168.087 241.557 168.087 242.125 168.087 242.717L166.767 242.765ZM170.255 238.637C170.825 238.637 171.289 238.496 171.647 238.213C172.009 237.93 172.273 237.565 172.439 237.117C172.609 236.664 172.695 236.178 172.695 235.661C172.695 235.122 172.604 234.632 172.423 234.189C172.247 233.741 171.977 233.384 171.615 233.117C171.252 232.85 170.791 232.717 170.231 232.717C169.953 232.717 169.681 232.76 169.415 232.845C169.148 232.925 168.9 233.048 168.671 233.213C168.447 233.373 168.252 233.573 168.087 233.813V237.341C168.247 237.613 168.431 237.845 168.639 238.037C168.852 238.229 169.092 238.378 169.359 238.485C169.625 238.586 169.924 238.637 170.255 238.637ZM176.235 239.645C176.235 239.053 176.235 238.485 176.235 237.941C176.235 237.397 176.235 236.797 176.235 236.141V231.749C176.235 231.077 176.235 230.424 176.235 229.789C176.235 229.154 176.235 228.536 176.235 227.933L177.555 227.773C177.555 228.408 177.555 229.053 177.555 229.709C177.555 230.36 177.555 231.04 177.555 231.749V233.029H177.699C177.859 232.805 178.065 232.576 178.315 232.341C178.571 232.106 178.873 231.912 179.219 231.757C179.571 231.597 179.971 231.517 180.419 231.517C181.262 231.517 181.878 231.76 182.267 232.245C182.657 232.73 182.851 233.434 182.851 234.357C182.851 234.704 182.851 235.01 182.851 235.277C182.851 235.544 182.851 235.832 182.851 236.141C182.851 236.77 182.851 237.365 182.851 237.925C182.851 238.48 182.851 239.053 182.851 239.645H181.531C181.531 239.053 181.531 238.482 181.531 237.933C181.531 237.378 181.531 236.8 181.531 236.197V234.693C181.531 234.058 181.417 233.578 181.187 233.253C180.963 232.928 180.555 232.765 179.963 232.765C179.606 232.765 179.281 232.837 178.987 232.981C178.694 233.125 178.427 233.32 178.187 233.565C177.953 233.805 177.742 234.072 177.555 234.365V236.197C177.555 236.821 177.555 237.405 177.555 237.949C177.555 238.488 177.555 239.053 177.555 239.645H176.235ZM185.423 239.645C185.423 239.053 185.423 238.485 185.423 237.941C185.423 237.397 185.423 236.797 185.423 236.141V235.341C185.423 234.866 185.423 234.429 185.423 234.029C185.423 233.624 185.423 233.234 185.423 232.861C185.423 232.482 185.423 232.098 185.423 231.709L186.751 231.661C186.751 232.056 186.751 232.445 186.751 232.829C186.751 233.208 186.751 233.602 186.751 234.013C186.751 234.418 186.751 234.861 186.751 235.341V236.141C186.751 236.797 186.751 237.397 186.751 237.941C186.751 238.485 186.751 239.053 186.751 239.645H185.423ZM186.063 229.877C185.775 229.877 185.541 229.797 185.359 229.637C185.178 229.477 185.087 229.232 185.087 228.901C185.087 228.576 185.178 228.333 185.359 228.173C185.541 228.008 185.781 227.925 186.079 227.925C186.373 227.925 186.607 228.01 186.783 228.181C186.959 228.346 187.047 228.586 187.047 228.901C187.047 229.232 186.959 229.477 186.783 229.637C186.607 229.797 186.367 229.877 186.063 229.877ZM192.973 239.805C192.114 239.805 191.383 239.624 190.781 239.261C190.183 238.898 189.727 238.405 189.413 237.781C189.098 237.157 188.941 236.453 188.941 235.669C188.941 234.885 189.09 234.181 189.389 233.557C189.693 232.928 190.133 232.432 190.709 232.069C191.29 231.706 191.997 231.525 192.829 231.525C193.138 231.525 193.442 231.552 193.741 231.605C194.045 231.658 194.33 231.73 194.597 231.821C194.863 231.906 195.101 232.008 195.309 232.125L195.189 233.341C194.89 233.17 194.607 233.04 194.341 232.949C194.079 232.853 193.834 232.789 193.605 232.757C193.381 232.72 193.173 232.701 192.981 232.701C192.17 232.701 191.519 232.968 191.029 233.501C190.538 234.029 190.293 234.744 190.293 235.645C190.293 236.21 190.399 236.722 190.613 237.181C190.831 237.634 191.157 237.994 191.589 238.261C192.026 238.522 192.567 238.653 193.213 238.653C193.442 238.653 193.669 238.632 193.893 238.589C194.122 238.546 194.349 238.485 194.573 238.405C194.797 238.32 195.013 238.21 195.221 238.077L195.333 239.285C195.157 239.381 194.951 239.469 194.717 239.549C194.482 239.624 194.218 239.685 193.925 239.733C193.637 239.781 193.319 239.805 192.973 239.805ZM200.485 239.645C200.485 239.053 200.485 238.485 200.485 237.941C200.485 237.397 200.485 236.797 200.485 236.141V231.749C200.485 231.077 200.485 230.424 200.485 229.789C200.485 229.154 200.485 228.536 200.485 227.933L201.805 227.773C201.805 228.418 201.805 229.066 201.805 229.717C201.805 230.362 201.805 231.04 201.805 231.749V236.141C201.805 236.797 201.805 237.397 201.805 237.941C201.805 238.485 201.805 239.053 201.805 239.645H200.485ZM204.564 239.645C204.564 239.053 204.564 238.485 204.564 237.941C204.564 237.397 204.564 236.797 204.564 236.141V235.341C204.564 234.866 204.564 234.429 204.564 234.029C204.564 233.624 204.564 233.234 204.564 232.861C204.564 232.482 204.564 232.098 204.564 231.709L205.892 231.661C205.892 232.056 205.892 232.445 205.892 232.829C205.892 233.208 205.892 233.602 205.892 234.013C205.892 234.418 205.892 234.861 205.892 235.341V236.141C205.892 236.797 205.892 237.397 205.892 237.941C205.892 238.485 205.892 239.053 205.892 239.645H204.564ZM205.204 229.877C204.916 229.877 204.681 229.797 204.5 229.637C204.319 229.477 204.228 229.232 204.228 228.901C204.228 228.576 204.319 228.333 204.5 228.173C204.681 228.008 204.921 227.925 205.22 227.925C205.513 227.925 205.748 228.01 205.924 228.181C206.1 228.346 206.188 228.586 206.188 228.901C206.188 229.232 206.1 229.477 205.924 229.637C205.748 229.797 205.508 229.877 205.204 229.877ZM209.177 239.645C209.177 239.053 209.177 238.485 209.177 237.941C209.177 237.397 209.177 236.797 209.177 236.141V235.341C209.177 235.016 209.177 234.674 209.177 234.317C209.177 233.954 209.177 233.578 209.177 233.189C209.177 232.8 209.177 232.397 209.177 231.981C209.177 231.56 209.177 231.122 209.177 230.669C209.177 230.104 209.252 229.632 209.401 229.253C209.556 228.874 209.767 228.573 210.033 228.349C210.305 228.125 210.615 227.965 210.961 227.869C211.308 227.768 211.679 227.717 212.073 227.717C212.265 227.717 212.452 227.728 212.633 227.749C212.815 227.765 212.98 227.789 213.129 227.821C213.284 227.853 213.415 227.89 213.521 227.933L213.401 229.077C213.231 229.013 213.047 228.965 212.849 228.933C212.657 228.896 212.455 228.877 212.241 228.877C211.617 228.877 211.161 229.029 210.873 229.333C210.591 229.632 210.449 230.088 210.449 230.701C210.449 230.866 210.449 231.053 210.449 231.261C210.449 231.464 210.449 231.613 210.449 231.709L210.497 232.005V236.141C210.497 236.797 210.497 237.397 210.497 237.941C210.497 238.485 210.497 239.053 210.497 239.645H209.177ZM207.673 232.757V231.709H213.185V232.757C212.652 232.757 212.132 232.757 211.625 232.757C211.119 232.757 210.609 232.757 210.097 232.757H209.553H207.673ZM218.163 239.821C217.214 239.821 216.432 239.64 215.819 239.277C215.206 238.914 214.75 238.418 214.451 237.789C214.152 237.16 214.003 236.44 214.003 235.629C214.003 234.829 214.15 234.12 214.443 233.501C214.736 232.882 215.158 232.4 215.707 232.053C216.256 231.701 216.912 231.525 217.675 231.525C218.347 231.525 218.923 231.656 219.403 231.917C219.888 232.178 220.262 232.562 220.523 233.069C220.784 233.57 220.915 234.192 220.915 234.933C220.915 235.13 220.91 235.309 220.899 235.469C220.894 235.624 220.878 235.781 220.851 235.941L219.691 235.357C219.702 235.272 219.707 235.192 219.707 235.117C219.712 235.037 219.715 234.96 219.715 234.885C219.715 234.133 219.528 233.562 219.155 233.173C218.782 232.778 218.294 232.581 217.691 232.581C217.206 232.581 216.787 232.706 216.435 232.957C216.088 233.202 215.819 233.544 215.627 233.981C215.435 234.418 215.339 234.917 215.339 235.477V235.661C215.339 236.28 215.446 236.813 215.659 237.261C215.872 237.709 216.195 238.056 216.627 238.301C217.064 238.541 217.619 238.661 218.291 238.661C218.542 238.661 218.806 238.642 219.083 238.605C219.366 238.562 219.643 238.498 219.915 238.413C220.192 238.328 220.456 238.216 220.707 238.077L220.763 239.269C220.56 239.381 220.326 239.48 220.059 239.565C219.792 239.645 219.499 239.706 219.179 239.749C218.859 239.797 218.52 239.821 218.163 239.821ZM214.555 235.941V234.997L220.043 234.949L220.851 235.253V235.941H214.555ZM231.295 239.821C230.33 239.821 229.484 239.666 228.759 239.357C228.034 239.042 227.428 238.613 226.943 238.069C226.463 237.52 226.103 236.89 225.863 236.181C225.623 235.472 225.503 234.722 225.503 233.933C225.503 232.824 225.727 231.824 226.175 230.933C226.628 230.042 227.282 229.336 228.135 228.813C228.988 228.29 230.026 228.029 231.247 228.029C232.175 228.029 232.994 228.181 233.703 228.485C234.418 228.789 235.018 229.21 235.503 229.749C235.988 230.288 236.354 230.914 236.599 231.629C236.844 232.344 236.967 233.109 236.967 233.925C236.967 235.05 236.743 236.058 236.295 236.949C235.847 237.834 235.199 238.536 234.351 239.053C233.503 239.565 232.484 239.821 231.295 239.821ZM231.255 238.573C231.986 238.573 232.615 238.448 233.143 238.197C233.671 237.941 234.106 237.594 234.447 237.157C234.794 236.72 235.05 236.224 235.215 235.669C235.38 235.109 235.463 234.528 235.463 233.925C235.463 233.274 235.372 232.669 235.191 232.109C235.015 231.544 234.748 231.05 234.391 230.629C234.039 230.202 233.602 229.872 233.079 229.637C232.556 229.397 231.948 229.277 231.255 229.277C230.54 229.277 229.916 229.402 229.383 229.653C228.855 229.904 228.415 230.248 228.063 230.685C227.711 231.117 227.447 231.613 227.271 232.173C227.095 232.728 227.007 233.312 227.007 233.925C227.007 234.544 227.092 235.13 227.263 235.685C227.434 236.24 227.692 236.736 228.039 237.173C228.391 237.605 228.834 237.946 229.367 238.197C229.9 238.448 230.53 238.573 231.255 238.573ZM239.157 239.645C239.157 239.053 239.157 238.485 239.157 237.941C239.157 237.397 239.157 236.797 239.157 236.141V235.341C239.157 234.754 239.157 234.154 239.157 233.541C239.157 232.928 239.157 232.317 239.157 231.709L240.309 231.629L240.349 233.101H240.493C240.664 232.861 240.883 232.618 241.149 232.373C241.416 232.128 241.731 231.925 242.093 231.765C242.456 231.6 242.872 231.517 243.341 231.517C244.184 231.517 244.8 231.76 245.189 232.245C245.579 232.73 245.773 233.434 245.773 234.357C245.773 234.704 245.773 235.01 245.773 235.277C245.773 235.544 245.773 235.832 245.773 236.141C245.773 236.77 245.773 237.365 245.773 237.925C245.773 238.48 245.773 239.053 245.773 239.645H244.453C244.453 239.053 244.453 238.482 244.453 237.933C244.453 237.378 244.453 236.8 244.453 236.197V234.693C244.453 234.058 244.339 233.578 244.109 233.253C243.885 232.928 243.477 232.765 242.885 232.765C242.528 232.765 242.203 232.837 241.909 232.981C241.616 233.125 241.349 233.32 241.109 233.565C240.875 233.805 240.664 234.072 240.477 234.365V236.197C240.477 236.821 240.477 237.405 240.477 237.949C240.477 238.488 240.477 239.053 240.477 239.645H239.157ZM251.913 239.821C250.964 239.821 250.182 239.64 249.569 239.277C248.956 238.914 248.5 238.418 248.201 237.789C247.902 237.16 247.753 236.44 247.753 235.629C247.753 234.829 247.9 234.12 248.193 233.501C248.486 232.882 248.908 232.4 249.457 232.053C250.006 231.701 250.662 231.525 251.425 231.525C252.097 231.525 252.673 231.656 253.153 231.917C253.638 232.178 254.012 232.562 254.273 233.069C254.534 233.57 254.665 234.192 254.665 234.933C254.665 235.13 254.66 235.309 254.649 235.469C254.644 235.624 254.628 235.781 254.601 235.941L253.441 235.357C253.452 235.272 253.457 235.192 253.457 235.117C253.462 235.037 253.465 234.96 253.465 234.885C253.465 234.133 253.278 233.562 252.905 233.173C252.532 232.778 252.044 232.581 251.441 232.581C250.956 232.581 250.537 232.706 250.185 232.957C249.838 233.202 249.569 233.544 249.377 233.981C249.185 234.418 249.089 234.917 249.089 235.477V235.661C249.089 236.28 249.196 236.813 249.409 237.261C249.622 237.709 249.945 238.056 250.377 238.301C250.814 238.541 251.369 238.661 252.041 238.661C252.292 238.661 252.556 238.642 252.833 238.605C253.116 238.562 253.393 238.498 253.665 238.413C253.942 238.328 254.206 238.216 254.457 238.077L254.513 239.269C254.31 239.381 254.076 239.48 253.809 239.565C253.542 239.645 253.249 239.706 252.929 239.749C252.609 239.797 252.27 239.821 251.913 239.821ZM248.305 235.941V234.997L253.793 234.949L254.601 235.253V235.941H248.305ZM84.2 271.821C83.4427 271.821 82.8133 271.629 82.312 271.245C81.8107 270.856 81.4347 270.346 81.184 269.717C80.9333 269.082 80.808 268.394 80.808 267.653C80.808 266.864 80.9413 266.157 81.208 265.533C81.4747 264.909 81.8613 264.418 82.368 264.061C82.88 263.698 83.4987 263.517 84.224 263.517C84.592 263.517 84.928 263.568 85.232 263.669C85.5413 263.765 85.8133 263.896 86.048 264.061C86.2827 264.221 86.4773 264.4 86.632 264.597H86.768V263.749C86.768 263.077 86.768 262.426 86.768 261.797C86.768 261.162 86.768 260.541 86.768 259.933L88.088 259.773C88.088 260.418 88.088 261.066 88.088 261.717C88.088 262.362 88.088 263.04 88.088 263.749V268.141C88.088 268.797 88.088 269.397 88.088 269.941C88.088 270.485 88.088 271.053 88.088 271.645H86.936L86.872 270.557H86.744C86.536 270.829 86.304 271.058 86.048 271.245C85.792 271.432 85.5093 271.573 85.2 271.669C84.896 271.77 84.5627 271.821 84.2 271.821ZM84.6 270.637C84.9307 270.637 85.2293 270.586 85.496 270.485C85.7627 270.378 86 270.229 86.208 270.037C86.4213 269.845 86.608 269.613 86.768 269.341V265.813C86.6027 265.573 86.4053 265.373 86.176 265.213C85.952 265.048 85.7067 264.925 85.44 264.845C85.1733 264.76 84.9013 264.717 84.624 264.717C84.064 264.717 83.6027 264.85 83.24 265.117C82.8773 265.384 82.6053 265.741 82.424 266.189C82.248 266.632 82.16 267.122 82.16 267.661C82.16 268.178 82.2453 268.664 82.416 269.117C82.5867 269.565 82.8507 269.93 83.208 270.213C83.5653 270.496 84.0293 270.637 84.6 270.637ZM92.4664 271.805C91.9917 271.805 91.5757 271.714 91.2184 271.533C90.861 271.346 90.581 271.082 90.3784 270.741C90.181 270.4 90.0824 269.989 90.0824 269.509C90.0824 269.077 90.1597 268.714 90.3144 268.421C90.469 268.122 90.6717 267.88 90.9224 267.693C91.173 267.506 91.4504 267.362 91.7544 267.261C92.0584 267.154 92.3624 267.074 92.6664 267.021L95.1544 266.589C95.1757 266.05 95.1037 265.645 94.9384 265.373C94.7784 265.096 94.5517 264.909 94.2584 264.813C93.965 264.717 93.6397 264.669 93.2824 264.669C93.101 264.669 92.9064 264.682 92.6984 264.709C92.4904 264.736 92.269 264.778 92.0344 264.837C91.805 264.89 91.5624 264.96 91.3064 265.045C91.0504 265.13 90.781 265.234 90.4984 265.357L90.4264 264.149C90.6184 264.069 90.8344 263.992 91.0744 263.917C91.3197 263.842 91.5784 263.776 91.8504 263.717C92.1277 263.653 92.4104 263.605 92.6984 263.573C92.9864 263.541 93.277 263.525 93.5704 263.525C94.1624 263.525 94.6717 263.618 95.0984 263.805C95.5304 263.992 95.861 264.285 96.0904 264.685C96.3197 265.085 96.4344 265.608 96.4344 266.253C96.4344 266.498 96.4344 266.81 96.4344 267.189C96.4344 267.568 96.4344 267.928 96.4344 268.269V269.301C96.4344 269.664 96.4344 270.034 96.4344 270.413C96.4344 270.786 96.4344 271.197 96.4344 271.645H95.2344L95.1624 270.517H95.0344C94.869 270.73 94.661 270.936 94.4104 271.133C94.1597 271.33 93.869 271.493 93.5384 271.621C93.213 271.744 92.8557 271.805 92.4664 271.805ZM92.8504 270.709C93.133 270.709 93.4157 270.65 93.6984 270.533C93.981 270.416 94.245 270.242 94.4904 270.013C94.741 269.778 94.9517 269.485 95.1224 269.133L95.1304 267.421C95.045 267.469 94.9304 267.517 94.7864 267.565C94.6477 267.613 94.437 267.669 94.1544 267.733C93.877 267.792 93.4904 267.866 92.9944 267.957C92.6904 268.01 92.421 268.098 92.1864 268.221C91.9517 268.338 91.765 268.501 91.6264 268.709C91.493 268.912 91.4264 269.16 91.4264 269.453C91.4264 269.912 91.5624 270.237 91.8344 270.429C92.1117 270.616 92.4504 270.709 92.8504 270.709ZM99.5815 274.765C99.7948 274.242 100.008 273.714 100.222 273.181C100.435 272.648 100.648 272.12 100.862 271.597V271.933C100.659 271.389 100.456 270.837 100.254 270.277C100.051 269.717 99.8508 269.173 99.6535 268.645L99.1255 267.205C98.9175 266.634 98.7015 266.05 98.4775 265.453C98.2588 264.856 98.0455 264.274 97.8375 263.709L99.2535 263.653C99.4828 264.341 99.7068 265.013 99.9255 265.669C100.144 266.325 100.368 266.994 100.598 267.677L101.438 270.229H101.582L102.502 267.669C102.742 267.002 102.979 266.341 103.214 265.685C103.448 265.029 103.686 264.37 103.926 263.709H105.326C105.155 264.136 104.99 264.549 104.83 264.949C104.675 265.344 104.502 265.781 104.31 266.261C104.123 266.741 103.899 267.312 103.638 267.973L102.758 270.205C102.358 271.218 102.016 272.08 101.734 272.789C101.456 273.498 101.203 274.141 100.974 274.717L99.5815 274.765ZM110.157 271.645C110.157 271.053 110.157 270.485 110.157 269.941C110.157 269.397 110.157 268.797 110.157 268.141V263.749C110.157 263.077 110.157 262.424 110.157 261.789C110.157 261.154 110.157 260.536 110.157 259.933L111.477 259.773C111.477 260.408 111.477 261.053 111.477 261.709C111.477 262.36 111.477 263.04 111.477 263.749V265.029H111.621C111.781 264.805 111.987 264.576 112.237 264.341C112.493 264.106 112.795 263.912 113.141 263.757C113.493 263.597 113.893 263.517 114.341 263.517C115.184 263.517 115.8 263.76 116.189 264.245C116.579 264.73 116.773 265.434 116.773 266.357C116.773 266.704 116.773 267.01 116.773 267.277C116.773 267.544 116.773 267.832 116.773 268.141C116.773 268.77 116.773 269.365 116.773 269.925C116.773 270.48 116.773 271.053 116.773 271.645H115.453C115.453 271.053 115.453 270.482 115.453 269.933C115.453 269.378 115.453 268.8 115.453 268.197V266.693C115.453 266.058 115.339 265.578 115.109 265.253C114.885 264.928 114.477 264.765 113.885 264.765C113.528 264.765 113.203 264.837 112.909 264.981C112.616 265.125 112.349 265.32 112.109 265.565C111.875 265.805 111.664 266.072 111.477 266.365V268.197C111.477 268.821 111.477 269.405 111.477 269.949C111.477 270.488 111.477 271.053 111.477 271.645H110.157ZM122.761 271.821C122.105 271.821 121.526 271.709 121.025 271.485C120.529 271.256 120.113 270.946 119.777 270.557C119.441 270.168 119.185 269.722 119.009 269.221C118.838 268.714 118.753 268.184 118.753 267.629C118.753 266.834 118.913 266.13 119.233 265.517C119.558 264.898 120.017 264.41 120.609 264.053C121.206 263.696 121.916 263.517 122.737 263.517C123.372 263.517 123.934 263.621 124.425 263.829C124.916 264.037 125.332 264.328 125.673 264.701C126.014 265.074 126.273 265.512 126.449 266.013C126.625 266.509 126.713 267.048 126.713 267.629C126.713 268.413 126.553 269.122 126.233 269.757C125.913 270.392 125.457 270.896 124.865 271.269C124.278 271.637 123.577 271.821 122.761 271.821ZM122.761 270.669C123.342 270.669 123.825 270.525 124.209 270.237C124.593 269.949 124.881 269.573 125.073 269.109C125.265 268.645 125.361 268.152 125.361 267.629C125.361 267.032 125.254 266.512 125.041 266.069C124.828 265.626 124.526 265.282 124.137 265.037C123.748 264.792 123.286 264.669 122.753 264.669C122.177 264.669 121.692 264.8 121.297 265.061C120.902 265.322 120.604 265.677 120.401 266.125C120.204 266.573 120.105 267.074 120.105 267.629C120.105 268.152 120.201 268.645 120.393 269.109C120.59 269.573 120.886 269.949 121.281 270.237C121.676 270.525 122.169 270.669 122.761 270.669ZM130.226 271.645C130.066 271.144 129.904 270.645 129.738 270.149C129.573 269.648 129.405 269.138 129.234 268.621L128.778 267.213C128.586 266.626 128.394 266.045 128.202 265.469C128.016 264.888 127.826 264.301 127.634 263.709L129.026 263.653C129.224 264.304 129.429 264.989 129.642 265.709C129.861 266.424 130.069 267.112 130.266 267.773L131.002 270.229H131.13L131.85 267.717C132.042 267.05 132.234 266.386 132.426 265.725C132.618 265.058 132.813 264.386 133.01 263.709H134.29C134.482 264.354 134.677 265.016 134.874 265.693C135.072 266.365 135.266 267.029 135.458 267.685L136.202 270.229H136.33L137.082 267.653C137.269 267.008 137.464 266.336 137.666 265.637C137.874 264.933 138.064 264.29 138.234 263.709H139.642C139.456 264.29 139.266 264.874 139.074 265.461C138.888 266.048 138.701 266.632 138.514 267.213L138.066 268.605C137.896 269.122 137.728 269.637 137.562 270.149C137.397 270.656 137.234 271.154 137.074 271.645H135.514C135.328 271.032 135.136 270.397 134.938 269.741C134.741 269.08 134.549 268.453 134.362 267.861L133.666 265.549H133.53L132.842 267.885C132.666 268.477 132.482 269.098 132.29 269.749C132.098 270.4 131.909 271.032 131.722 271.645H130.226ZM144.726 271.821C143.776 271.821 142.995 271.64 142.382 271.277C141.768 270.914 141.312 270.418 141.014 269.789C140.715 269.16 140.566 268.44 140.566 267.629C140.566 266.829 140.712 266.12 141.006 265.501C141.299 264.882 141.72 264.4 142.27 264.053C142.819 263.701 143.475 263.525 144.238 263.525C144.91 263.525 145.486 263.656 145.966 263.917C146.451 264.178 146.824 264.562 147.086 265.069C147.347 265.57 147.478 266.192 147.478 266.933C147.478 267.13 147.472 267.309 147.462 267.469C147.456 267.624 147.44 267.781 147.414 267.941L146.254 267.357C146.264 267.272 146.27 267.192 146.27 267.117C146.275 267.037 146.278 266.96 146.278 266.885C146.278 266.133 146.091 265.562 145.718 265.173C145.344 264.778 144.856 264.581 144.254 264.581C143.768 264.581 143.35 264.706 142.998 264.957C142.651 265.202 142.382 265.544 142.19 265.981C141.998 266.418 141.902 266.917 141.902 267.477V267.661C141.902 268.28 142.008 268.813 142.222 269.261C142.435 269.709 142.758 270.056 143.19 270.301C143.627 270.541 144.182 270.661 144.854 270.661C145.104 270.661 145.368 270.642 145.646 270.605C145.928 270.562 146.206 270.498 146.478 270.413C146.755 270.328 147.019 270.216 147.27 270.077L147.326 271.269C147.123 271.381 146.888 271.48 146.622 271.565C146.355 271.645 146.062 271.706 145.742 271.749C145.422 271.797 145.083 271.821 144.726 271.821ZM141.118 267.941V266.997L146.606 266.949L147.414 267.253V267.941H141.118ZM151.36 271.645C151.173 271.149 150.984 270.645 150.792 270.133C150.605 269.621 150.421 269.125 150.24 268.645L149.712 267.237C149.493 266.656 149.272 266.069 149.048 265.477C148.829 264.88 148.613 264.29 148.4 263.709L149.816 263.653C150.051 264.325 150.277 264.992 150.496 265.653C150.72 266.314 150.947 266.981 151.176 267.653L152.048 270.197H152.184L153.056 267.645C153.291 266.968 153.517 266.304 153.736 265.653C153.96 264.997 154.181 264.349 154.4 263.709H155.808C155.589 264.29 155.368 264.88 155.144 265.477C154.925 266.074 154.709 266.666 154.496 267.253L153.968 268.677C153.781 269.178 153.597 269.674 153.416 270.165C153.235 270.65 153.051 271.144 152.864 271.645H151.36ZM160.882 271.821C159.933 271.821 159.151 271.64 158.538 271.277C157.925 270.914 157.469 270.418 157.17 269.789C156.871 269.16 156.722 268.44 156.722 267.629C156.722 266.829 156.869 266.12 157.162 265.501C157.455 264.882 157.877 264.4 158.426 264.053C158.975 263.701 159.631 263.525 160.394 263.525C161.066 263.525 161.642 263.656 162.122 263.917C162.607 264.178 162.981 264.562 163.242 265.069C163.503 265.57 163.634 266.192 163.634 266.933C163.634 267.13 163.629 267.309 163.618 267.469C163.613 267.624 163.597 267.781 163.57 267.941L162.41 267.357C162.421 267.272 162.426 267.192 162.426 267.117C162.431 267.037 162.434 266.96 162.434 266.885C162.434 266.133 162.247 265.562 161.874 265.173C161.501 264.778 161.013 264.581 160.41 264.581C159.925 264.581 159.506 264.706 159.154 264.957C158.807 265.202 158.538 265.544 158.346 265.981C158.154 266.418 158.058 266.917 158.058 267.477V267.661C158.058 268.28 158.165 268.813 158.378 269.261C158.591 269.709 158.914 270.056 159.346 270.301C159.783 270.541 160.338 270.661 161.01 270.661C161.261 270.661 161.525 270.642 161.802 270.605C162.085 270.562 162.362 270.498 162.634 270.413C162.911 270.328 163.175 270.216 163.426 270.077L163.482 271.269C163.279 271.381 163.045 271.48 162.778 271.565C162.511 271.645 162.218 271.706 161.898 271.749C161.578 271.797 161.239 271.821 160.882 271.821ZM157.274 267.941V266.997L162.762 266.949L163.57 267.253V267.941H157.274ZM165.735 271.645C165.735 271.053 165.735 270.485 165.735 269.941C165.735 269.397 165.735 268.797 165.735 268.141V267.341C165.735 266.754 165.735 266.154 165.735 265.541C165.735 264.928 165.735 264.317 165.735 263.709L166.887 263.629L166.927 265.245H167.063C167.282 264.76 167.533 264.394 167.815 264.149C168.103 263.898 168.394 263.73 168.687 263.645C168.981 263.56 169.25 263.517 169.495 263.517C169.645 263.517 169.794 263.528 169.943 263.549C170.093 263.57 170.234 263.605 170.367 263.653L170.247 264.981C170.071 264.949 169.911 264.922 169.767 264.901C169.629 264.88 169.466 264.869 169.279 264.869C169.125 264.869 168.949 264.893 168.751 264.941C168.559 264.984 168.359 265.077 168.151 265.221C167.949 265.36 167.751 265.57 167.559 265.853C167.367 266.13 167.199 266.501 167.055 266.965V268.197C167.055 268.821 167.055 269.405 167.055 269.949C167.055 270.488 167.055 271.053 167.055 271.645H165.735ZM177.045 271.805C176.57 271.805 176.154 271.714 175.797 271.533C175.439 271.346 175.159 271.082 174.957 270.741C174.759 270.4 174.661 269.989 174.661 269.509C174.661 269.077 174.738 268.714 174.893 268.421C175.047 268.122 175.25 267.88 175.501 267.693C175.751 267.506 176.029 267.362 176.333 267.261C176.637 267.154 176.941 267.074 177.245 267.021L179.733 266.589C179.754 266.05 179.682 265.645 179.517 265.373C179.357 265.096 179.13 264.909 178.837 264.813C178.543 264.717 178.218 264.669 177.861 264.669C177.679 264.669 177.485 264.682 177.277 264.709C177.069 264.736 176.847 264.778 176.613 264.837C176.383 264.89 176.141 264.96 175.885 265.045C175.629 265.13 175.359 265.234 175.077 265.357L175.005 264.149C175.197 264.069 175.413 263.992 175.653 263.917C175.898 263.842 176.157 263.776 176.429 263.717C176.706 263.653 176.989 263.605 177.277 263.573C177.565 263.541 177.855 263.525 178.149 263.525C178.741 263.525 179.25 263.618 179.677 263.805C180.109 263.992 180.439 264.285 180.669 264.685C180.898 265.085 181.013 265.608 181.013 266.253C181.013 266.498 181.013 266.81 181.013 267.189C181.013 267.568 181.013 267.928 181.013 268.269V269.301C181.013 269.664 181.013 270.034 181.013 270.413C181.013 270.786 181.013 271.197 181.013 271.645H179.813L179.741 270.517H179.613C179.447 270.73 179.239 270.936 178.989 271.133C178.738 271.33 178.447 271.493 178.117 271.621C177.791 271.744 177.434 271.805 177.045 271.805ZM177.429 270.709C177.711 270.709 177.994 270.65 178.277 270.533C178.559 270.416 178.823 270.242 179.069 270.013C179.319 269.778 179.53 269.485 179.701 269.133L179.709 267.421C179.623 267.469 179.509 267.517 179.365 267.565C179.226 267.613 179.015 267.669 178.733 267.733C178.455 267.792 178.069 267.866 177.573 267.957C177.269 268.01 176.999 268.098 176.765 268.221C176.53 268.338 176.343 268.501 176.205 268.709C176.071 268.912 176.005 269.16 176.005 269.453C176.005 269.912 176.141 270.237 176.413 270.429C176.69 270.616 177.029 270.709 177.429 270.709ZM188.866 271.821C188.535 271.821 188.202 271.794 187.866 271.741C187.535 271.688 187.223 271.618 186.93 271.533C186.637 271.442 186.381 271.341 186.162 271.229L186.266 269.989C186.511 270.128 186.773 270.25 187.05 270.357C187.333 270.458 187.623 270.538 187.922 270.597C188.226 270.65 188.53 270.677 188.834 270.677C189.127 270.677 189.397 270.645 189.642 270.581C189.893 270.512 190.09 270.389 190.234 270.213C190.383 270.032 190.458 269.77 190.458 269.429C190.458 269.205 190.394 269.021 190.266 268.877C190.138 268.733 189.922 268.602 189.618 268.485C189.319 268.368 188.914 268.237 188.402 268.093C187.981 267.976 187.605 267.832 187.274 267.661C186.943 267.49 186.682 267.261 186.49 266.973C186.303 266.685 186.21 266.309 186.21 265.845C186.21 265.125 186.445 264.56 186.914 264.149C187.389 263.733 188.026 263.525 188.826 263.525C189.157 263.525 189.477 263.554 189.786 263.613C190.095 263.666 190.381 263.738 190.642 263.829C190.903 263.92 191.13 264.016 191.322 264.117L191.21 265.357C190.954 265.197 190.69 265.066 190.418 264.965C190.146 264.858 189.885 264.784 189.634 264.741C189.383 264.693 189.162 264.669 188.97 264.669C188.751 264.669 188.533 264.701 188.314 264.765C188.101 264.824 187.922 264.936 187.778 265.101C187.634 265.261 187.562 265.493 187.562 265.797C187.562 266.016 187.613 266.2 187.714 266.349C187.815 266.498 187.991 266.632 188.242 266.749C188.493 266.866 188.839 266.989 189.282 267.117C189.81 267.272 190.261 267.434 190.634 267.605C191.013 267.77 191.303 267.989 191.506 268.261C191.709 268.533 191.81 268.909 191.81 269.389C191.81 269.853 191.709 270.269 191.506 270.637C191.303 271 190.986 271.288 190.554 271.501C190.122 271.714 189.559 271.821 188.866 271.821ZM193.907 271.645C193.907 271.053 193.907 270.485 193.907 269.941C193.907 269.397 193.907 268.797 193.907 268.141V267.341C193.907 266.754 193.907 266.154 193.907 265.541C193.907 264.928 193.907 264.317 193.907 263.709L195.059 263.629L195.099 265.085H195.243C195.409 264.85 195.617 264.613 195.867 264.373C196.123 264.128 196.425 263.925 196.771 263.765C197.118 263.6 197.515 263.517 197.963 263.517C198.614 263.517 199.113 263.68 199.459 264.005C199.811 264.325 200.041 264.786 200.147 265.389L200.227 265.437C200.249 265.581 200.265 265.73 200.275 265.885C200.291 266.034 200.299 266.192 200.299 266.357C200.299 266.704 200.299 267.01 200.299 267.277C200.299 267.544 200.299 267.832 200.299 268.141C200.299 268.77 200.299 269.365 200.299 269.925C200.299 270.48 200.299 271.053 200.299 271.645H198.979C198.979 271.053 198.979 270.482 198.979 269.933C198.979 269.378 198.979 268.8 198.979 268.197V266.693C198.979 266.058 198.873 265.578 198.659 265.253C198.446 264.928 198.059 264.765 197.499 264.765C197.158 264.765 196.849 264.84 196.571 264.989C196.299 265.133 196.051 265.328 195.827 265.573C195.609 265.813 195.409 266.077 195.227 266.365V268.197C195.227 268.821 195.227 269.405 195.227 269.949C195.227 270.488 195.227 271.053 195.227 271.645H193.907ZM203.987 271.645C203.987 271.053 203.987 270.482 203.987 269.933C203.987 269.378 203.987 268.8 203.987 268.197V266.693C203.987 266.058 203.881 265.578 203.667 265.253C203.454 264.928 203.067 264.765 202.507 264.765C202.171 264.765 201.865 264.837 201.587 264.981C201.315 265.125 201.065 265.32 200.835 265.565C200.611 265.805 200.411 266.072 200.235 266.365L200.043 265.117H200.187C200.369 264.872 200.59 264.626 200.851 264.381C201.118 264.13 201.427 263.925 201.779 263.765C202.131 263.6 202.531 263.517 202.979 263.517C203.811 263.517 204.406 263.765 204.763 264.261C205.126 264.757 205.307 265.456 205.307 266.357C205.307 266.704 205.307 267.01 205.307 267.277C205.307 267.544 205.307 267.832 205.307 268.141C205.307 268.77 205.307 269.365 205.307 269.925C205.307 270.48 205.307 271.053 205.307 271.645H203.987ZM209.716 271.805C209.242 271.805 208.826 271.714 208.468 271.533C208.111 271.346 207.831 271.082 207.628 270.741C207.431 270.4 207.332 269.989 207.332 269.509C207.332 269.077 207.41 268.714 207.564 268.421C207.719 268.122 207.922 267.88 208.172 267.693C208.423 267.506 208.7 267.362 209.004 267.261C209.308 267.154 209.612 267.074 209.916 267.021L212.404 266.589C212.426 266.05 212.354 265.645 212.188 265.373C212.028 265.096 211.802 264.909 211.508 264.813C211.215 264.717 210.89 264.669 210.532 264.669C210.351 264.669 210.156 264.682 209.948 264.709C209.74 264.736 209.519 264.778 209.284 264.837C209.055 264.89 208.812 264.96 208.556 265.045C208.3 265.13 208.031 265.234 207.748 265.357L207.676 264.149C207.868 264.069 208.084 263.992 208.324 263.917C208.57 263.842 208.828 263.776 209.1 263.717C209.378 263.653 209.66 263.605 209.948 263.573C210.236 263.541 210.527 263.525 210.82 263.525C211.412 263.525 211.922 263.618 212.348 263.805C212.78 263.992 213.111 264.285 213.34 264.685C213.57 265.085 213.684 265.608 213.684 266.253C213.684 266.498 213.684 266.81 213.684 267.189C213.684 267.568 213.684 267.928 213.684 268.269V269.301C213.684 269.664 213.684 270.034 213.684 270.413C213.684 270.786 213.684 271.197 213.684 271.645H212.484L212.412 270.517H212.284C212.119 270.73 211.911 270.936 211.66 271.133C211.41 271.33 211.119 271.493 210.788 271.621C210.463 271.744 210.106 271.805 209.716 271.805ZM210.1 270.709C210.383 270.709 210.666 270.65 210.948 270.533C211.231 270.416 211.495 270.242 211.74 270.013C211.991 269.778 212.202 269.485 212.372 269.133L212.38 267.421C212.295 267.469 212.18 267.517 212.036 267.565C211.898 267.613 211.687 267.669 211.404 267.733C211.127 267.792 210.74 267.866 210.244 267.957C209.94 268.01 209.671 268.098 209.436 268.221C209.202 268.338 209.015 268.501 208.876 268.709C208.743 268.912 208.676 269.16 208.676 269.453C208.676 269.912 208.812 270.237 209.084 270.429C209.362 270.616 209.7 270.709 210.1 270.709ZM216.235 271.645C216.235 271.053 216.235 270.485 216.235 269.941C216.235 269.397 216.235 268.797 216.235 268.141V263.749C216.235 263.077 216.235 262.424 216.235 261.789C216.235 261.154 216.235 260.536 216.235 259.933L217.555 259.773C217.555 260.418 217.555 261.066 217.555 261.717C217.555 262.362 217.555 263.04 217.555 263.749V268.141C217.555 268.797 217.555 269.397 217.555 269.941C217.555 270.485 217.555 271.053 217.555 271.645H216.235ZM220.298 271.645C220.298 271.053 220.298 270.485 220.298 269.941C220.298 269.397 220.298 268.797 220.298 268.141V263.749C220.298 263.077 220.298 262.424 220.298 261.789C220.298 261.154 220.298 260.536 220.298 259.933L221.618 259.773C221.618 260.418 221.618 261.066 221.618 261.717C221.618 262.362 221.618 263.04 221.618 263.749V268.141C221.618 268.797 221.618 269.397 221.618 269.941C221.618 270.485 221.618 271.053 221.618 271.645H220.298ZM227.423 271.645C227.423 271.053 227.423 270.485 227.423 269.941C227.423 269.397 227.423 268.797 227.423 268.141V263.749C227.423 263.077 227.423 262.424 227.423 261.789C227.423 261.154 227.423 260.536 227.423 259.933L228.743 259.773C228.743 260.418 228.743 261.066 228.743 261.717C228.743 262.362 228.743 263.04 228.743 263.749V268.141C228.743 268.797 228.743 269.397 228.743 269.941C228.743 270.485 228.743 271.053 228.743 271.645H227.423ZM231.501 271.645C231.501 271.053 231.501 270.485 231.501 269.941C231.501 269.397 231.501 268.797 231.501 268.141V267.341C231.501 266.866 231.501 266.429 231.501 266.029C231.501 265.624 231.501 265.234 231.501 264.861C231.501 264.482 231.501 264.098 231.501 263.709L232.829 263.661C232.829 264.056 232.829 264.445 232.829 264.829C232.829 265.208 232.829 265.602 232.829 266.013C232.829 266.418 232.829 266.861 232.829 267.341V268.141C232.829 268.797 232.829 269.397 232.829 269.941C232.829 270.485 232.829 271.053 232.829 271.645H231.501ZM232.141 261.877C231.853 261.877 231.619 261.797 231.437 261.637C231.256 261.477 231.165 261.232 231.165 260.901C231.165 260.576 231.256 260.333 231.437 260.173C231.619 260.008 231.859 259.925 232.157 259.925C232.451 259.925 232.685 260.01 232.861 260.181C233.037 260.346 233.125 260.586 233.125 260.901C233.125 261.232 233.037 261.477 232.861 261.637C232.685 261.797 232.445 261.877 232.141 261.877ZM235.595 271.645C235.595 271.053 235.595 270.485 235.595 269.941C235.595 269.397 235.595 268.797 235.595 268.141V267.341C235.595 266.754 235.595 266.154 235.595 265.541C235.595 264.928 235.595 264.317 235.595 263.709L236.747 263.629L236.787 265.101H236.931C237.101 264.861 237.32 264.618 237.587 264.373C237.853 264.128 238.168 263.925 238.531 263.765C238.893 263.6 239.309 263.517 239.779 263.517C240.621 263.517 241.237 263.76 241.627 264.245C242.016 264.73 242.211 265.434 242.211 266.357C242.211 266.704 242.211 267.01 242.211 267.277C242.211 267.544 242.211 267.832 242.211 268.141C242.211 268.77 242.211 269.365 242.211 269.925C242.211 270.48 242.211 271.053 242.211 271.645H240.891C240.891 271.053 240.891 270.482 240.891 269.933C240.891 269.378 240.891 268.8 240.891 268.197V266.693C240.891 266.058 240.776 265.578 240.547 265.253C240.323 264.928 239.915 264.765 239.323 264.765C238.965 264.765 238.64 264.837 238.347 264.981C238.053 265.125 237.787 265.32 237.547 265.565C237.312 265.805 237.101 266.072 236.915 266.365V268.197C236.915 268.821 236.915 269.405 236.915 269.949C236.915 270.488 236.915 271.053 236.915 271.645H235.595ZM248.351 271.821C247.401 271.821 246.62 271.64 246.007 271.277C245.393 270.914 244.937 270.418 244.639 269.789C244.34 269.16 244.191 268.44 244.191 267.629C244.191 266.829 244.337 266.12 244.631 265.501C244.924 264.882 245.345 264.4 245.895 264.053C246.444 263.701 247.1 263.525 247.863 263.525C248.535 263.525 249.111 263.656 249.591 263.917C250.076 264.178 250.449 264.562 250.711 265.069C250.972 265.57 251.103 266.192 251.103 266.933C251.103 267.13 251.097 267.309 251.087 267.469C251.081 267.624 251.065 267.781 251.039 267.941L249.879 267.357C249.889 267.272 249.895 267.192 249.895 267.117C249.9 267.037 249.903 266.96 249.903 266.885C249.903 266.133 249.716 265.562 249.343 265.173C248.969 264.778 248.481 264.581 247.879 264.581C247.393 264.581 246.975 264.706 246.623 264.957C246.276 265.202 246.007 265.544 245.815 265.981C245.623 266.418 245.527 266.917 245.527 267.477V267.661C245.527 268.28 245.633 268.813 245.847 269.261C246.06 269.709 246.383 270.056 246.815 270.301C247.252 270.541 247.807 270.661 248.479 270.661C248.729 270.661 248.993 270.642 249.271 270.605C249.553 270.562 249.831 270.498 250.103 270.413C250.38 270.328 250.644 270.216 250.895 270.077L250.951 271.269C250.748 271.381 250.513 271.48 250.247 271.565C249.98 271.645 249.687 271.706 249.367 271.749C249.047 271.797 248.708 271.821 248.351 271.821ZM244.743 267.941V266.997L250.231 266.949L251.039 267.253V267.941H244.743ZM259.699 271.821C259.043 271.821 258.464 271.709 257.963 271.485C257.467 271.256 257.051 270.946 256.715 270.557C256.379 270.168 256.123 269.722 255.947 269.221C255.776 268.714 255.691 268.184 255.691 267.629C255.691 266.834 255.851 266.13 256.171 265.517C256.496 264.898 256.955 264.41 257.547 264.053C258.144 263.696 258.853 263.517 259.675 263.517C260.309 263.517 260.872 263.621 261.363 263.829C261.853 264.037 262.269 264.328 262.611 264.701C262.952 265.074 263.211 265.512 263.387 266.013C263.563 266.509 263.651 267.048 263.651 267.629C263.651 268.413 263.491 269.122 263.171 269.757C262.851 270.392 262.395 270.896 261.803 271.269C261.216 271.637 260.515 271.821 259.699 271.821ZM259.699 270.669C260.28 270.669 260.763 270.525 261.147 270.237C261.531 269.949 261.819 269.573 262.011 269.109C262.203 268.645 262.299 268.152 262.299 267.629C262.299 267.032 262.192 266.512 261.979 266.069C261.765 265.626 261.464 265.282 261.075 265.037C260.685 264.792 260.224 264.669 259.691 264.669C259.115 264.669 258.629 264.8 258.235 265.061C257.84 265.322 257.541 265.677 257.339 266.125C257.141 266.573 257.043 267.074 257.043 267.629C257.043 268.152 257.139 268.645 257.331 269.109C257.528 269.573 257.824 269.949 258.219 270.237C258.613 270.525 259.107 270.669 259.699 270.669ZM266.24 271.645C266.24 271.053 266.24 270.485 266.24 269.941C266.24 269.397 266.24 268.797 266.24 268.141V267.341C266.24 267.016 266.24 266.674 266.24 266.317C266.24 265.954 266.24 265.578 266.24 265.189C266.24 264.8 266.24 264.397 266.24 263.981C266.24 263.56 266.24 263.122 266.24 262.669C266.24 262.104 266.314 261.632 266.464 261.253C266.618 260.874 266.829 260.573 267.096 260.349C267.368 260.125 267.677 259.965 268.024 259.869C268.37 259.768 268.741 259.717 269.136 259.717C269.328 259.717 269.514 259.728 269.696 259.749C269.877 259.765 270.042 259.789 270.192 259.821C270.346 259.853 270.477 259.89 270.584 259.933L270.464 261.077C270.293 261.013 270.109 260.965 269.912 260.933C269.72 260.896 269.517 260.877 269.304 260.877C268.68 260.877 268.224 261.029 267.936 261.333C267.653 261.632 267.512 262.088 267.512 262.701C267.512 262.866 267.512 263.053 267.512 263.261C267.512 263.464 267.512 263.613 267.512 263.709L267.56 264.005V268.141C267.56 268.797 267.56 269.397 267.56 269.941C267.56 270.485 267.56 271.053 267.56 271.645H266.24ZM264.736 264.757V263.709H270.248V264.757C269.714 264.757 269.194 264.757 268.688 264.757C268.181 264.757 267.672 264.757 267.16 264.757H266.616H264.736ZM85.264 303.821C84.896 303.821 84.5573 303.77 84.248 303.669C83.9387 303.573 83.656 303.434 83.4 303.253C83.144 303.066 82.912 302.842 82.704 302.581H82.576L82.464 303.645H81.376C81.376 303.053 81.376 302.485 81.376 301.941C81.376 301.397 81.376 300.797 81.376 300.141V295.749C81.376 295.077 81.376 294.424 81.376 293.789C81.376 293.154 81.376 292.536 81.376 291.933L82.696 291.773C82.696 292.418 82.696 293.066 82.696 293.717C82.696 294.362 82.696 295.04 82.696 295.749V296.597H82.832C82.9813 296.4 83.1733 296.221 83.408 296.061C83.648 295.896 83.9227 295.765 84.232 295.669C84.5413 295.568 84.8773 295.517 85.24 295.517C85.9653 295.517 86.5813 295.698 87.088 296.061C87.6 296.418 87.9893 296.909 88.256 297.533C88.5227 298.157 88.656 298.864 88.656 299.653C88.656 300.394 88.5307 301.082 88.28 301.717C88.0347 302.346 87.6587 302.856 87.152 303.245C86.6507 303.629 86.0213 303.821 85.264 303.821ZM84.864 302.637C85.4347 302.637 85.8987 302.496 86.256 302.213C86.6187 301.93 86.8827 301.565 87.048 301.117C87.2187 300.664 87.304 300.178 87.304 299.661C87.304 299.122 87.2133 298.632 87.032 298.189C86.856 297.741 86.5867 297.384 86.224 297.117C85.8613 296.85 85.4 296.717 84.84 296.717C84.5627 296.717 84.2907 296.76 84.024 296.845C83.7573 296.925 83.5093 297.048 83.28 297.213C83.056 297.373 82.8613 297.573 82.696 297.813V301.341C82.856 301.613 83.04 301.845 83.248 302.037C83.4613 302.229 83.7013 302.378 83.968 302.485C84.2347 302.586 84.5333 302.637 84.864 302.637ZM90.8448 303.645C90.8448 303.053 90.8448 302.485 90.8448 301.941C90.8448 301.397 90.8448 300.797 90.8448 300.141V295.749C90.8448 295.077 90.8448 294.424 90.8448 293.789C90.8448 293.154 90.8448 292.536 90.8448 291.933L92.1648 291.773C92.1648 292.418 92.1648 293.066 92.1648 293.717C92.1648 294.362 92.1648 295.04 92.1648 295.749V300.141C92.1648 300.797 92.1648 301.397 92.1648 301.941C92.1648 302.485 92.1648 303.053 92.1648 303.645H90.8448ZM94.9233 303.645C94.9233 303.053 94.9233 302.485 94.9233 301.941C94.9233 301.397 94.9233 300.797 94.9233 300.141V299.341C94.9233 298.866 94.9233 298.429 94.9233 298.029C94.9233 297.624 94.9233 297.234 94.9233 296.861C94.9233 296.482 94.9233 296.098 94.9233 295.709L96.2513 295.661C96.2513 296.056 96.2513 296.445 96.2513 296.829C96.2513 297.208 96.2513 297.602 96.2513 298.013C96.2513 298.418 96.2513 298.861 96.2513 299.341V300.141C96.2513 300.797 96.2513 301.397 96.2513 301.941C96.2513 302.485 96.2513 303.053 96.2513 303.645H94.9233ZM95.5633 293.877C95.2753 293.877 95.0406 293.797 94.8593 293.637C94.6779 293.477 94.5872 293.232 94.5872 292.901C94.5872 292.576 94.6779 292.333 94.8593 292.173C95.0406 292.008 95.2806 291.925 95.5793 291.925C95.8726 291.925 96.1073 292.01 96.2833 292.181C96.4593 292.346 96.5473 292.586 96.5473 292.901C96.5473 293.232 96.4593 293.477 96.2833 293.637C96.1073 293.797 95.8673 293.877 95.5633 293.877ZM99.0166 303.645C99.0166 303.053 99.0166 302.485 99.0166 301.941C99.0166 301.397 99.0166 300.797 99.0166 300.141V299.341C99.0166 298.754 99.0166 298.154 99.0166 297.541C99.0166 296.928 99.0166 296.317 99.0166 295.709L100.169 295.629L100.209 297.101H100.353C100.523 296.861 100.742 296.618 101.009 296.373C101.275 296.128 101.59 295.925 101.953 295.765C102.315 295.6 102.731 295.517 103.201 295.517C104.043 295.517 104.659 295.76 105.049 296.245C105.438 296.73 105.633 297.434 105.633 298.357C105.633 298.704 105.633 299.01 105.633 299.277C105.633 299.544 105.633 299.832 105.633 300.141C105.633 300.77 105.633 301.365 105.633 301.925C105.633 302.48 105.633 303.053 105.633 303.645H104.313C104.313 303.053 104.313 302.482 104.313 301.933C104.313 301.378 104.313 300.8 104.313 300.197V298.693C104.313 298.058 104.198 297.578 103.969 297.253C103.745 296.928 103.337 296.765 102.745 296.765C102.387 296.765 102.062 296.837 101.769 296.981C101.475 297.125 101.209 297.32 100.969 297.565C100.734 297.805 100.523 298.072 100.337 298.365V300.197C100.337 300.821 100.337 301.405 100.337 301.949C100.337 302.488 100.337 303.053 100.337 303.645H99.0166ZM111.013 303.821C110.255 303.821 109.626 303.629 109.125 303.245C108.623 302.856 108.247 302.346 107.997 301.717C107.746 301.082 107.621 300.394 107.621 299.653C107.621 298.864 107.754 298.157 108.021 297.533C108.287 296.909 108.674 296.418 109.181 296.061C109.693 295.698 110.311 295.517 111.036 295.517C111.405 295.517 111.741 295.568 112.045 295.669C112.354 295.765 112.626 295.896 112.861 296.061C113.095 296.221 113.29 296.4 113.445 296.597H113.581V295.749C113.581 295.077 113.581 294.426 113.581 293.797C113.581 293.162 113.581 292.541 113.581 291.933L114.901 291.773C114.901 292.418 114.901 293.066 114.901 293.717C114.901 294.362 114.901 295.04 114.901 295.749V300.141C114.901 300.797 114.901 301.397 114.901 301.941C114.901 302.485 114.901 303.053 114.901 303.645H113.749L113.685 302.557H113.557C113.349 302.829 113.117 303.058 112.861 303.245C112.605 303.432 112.322 303.573 112.013 303.669C111.709 303.77 111.375 303.821 111.013 303.821ZM111.413 302.637C111.743 302.637 112.042 302.586 112.309 302.485C112.575 302.378 112.813 302.229 113.021 302.037C113.234 301.845 113.421 301.613 113.581 301.341V297.813C113.415 297.573 113.218 297.373 112.989 297.213C112.765 297.048 112.519 296.925 112.253 296.845C111.986 296.76 111.714 296.717 111.437 296.717C110.877 296.717 110.415 296.85 110.053 297.117C109.69 297.384 109.418 297.741 109.237 298.189C109.061 298.632 108.973 299.122 108.973 299.661C108.973 300.178 109.058 300.664 109.229 301.117C109.399 301.565 109.663 301.93 110.021 302.213C110.378 302.496 110.842 302.637 111.413 302.637ZM123.493 303.821C122.965 303.821 122.517 303.73 122.149 303.549C121.781 303.362 121.501 303.082 121.309 302.709C121.123 302.33 121.029 301.848 121.029 301.261C121.029 300.797 121.029 300.338 121.029 299.885C121.029 299.426 121.029 298.978 121.029 298.541C121.029 298.098 121.029 297.674 121.029 297.269C121.029 296.858 121.029 296.466 121.029 296.093C121.029 295.549 121.029 295.045 121.029 294.581C121.029 294.117 121.029 293.634 121.029 293.133L122.333 292.845C122.333 293.24 122.333 293.605 122.333 293.941C122.333 294.277 122.333 294.616 122.333 294.957C122.333 295.298 122.333 295.677 122.333 296.093V300.949C122.333 301.52 122.453 301.949 122.693 302.237C122.939 302.525 123.312 302.669 123.813 302.669C124.011 302.669 124.227 302.637 124.461 302.573C124.696 302.504 124.904 302.397 125.085 302.253L125.197 303.413C125.091 303.493 124.947 303.565 124.765 303.629C124.584 303.688 124.384 303.733 124.165 303.765C123.947 303.802 123.723 303.821 123.493 303.821ZM119.501 296.757V295.709H125.117V296.757C124.584 296.757 124.045 296.757 123.501 296.757C122.963 296.757 122.437 296.757 121.925 296.757H121.381H119.501ZM130.523 303.821C129.573 303.821 128.792 303.64 128.179 303.277C127.565 302.914 127.109 302.418 126.811 301.789C126.512 301.16 126.363 300.44 126.363 299.629C126.363 298.829 126.509 298.12 126.803 297.501C127.096 296.882 127.517 296.4 128.067 296.053C128.616 295.701 129.272 295.525 130.035 295.525C130.707 295.525 131.283 295.656 131.763 295.917C132.248 296.178 132.621 296.562 132.883 297.069C133.144 297.57 133.275 298.192 133.275 298.933C133.275 299.13 133.269 299.309 133.259 299.469C133.253 299.624 133.237 299.781 133.211 299.941L132.051 299.357C132.061 299.272 132.067 299.192 132.067 299.117C132.072 299.037 132.075 298.96 132.075 298.885C132.075 298.133 131.888 297.562 131.515 297.173C131.141 296.778 130.653 296.581 130.051 296.581C129.565 296.581 129.147 296.706 128.795 296.957C128.448 297.202 128.179 297.544 127.987 297.981C127.795 298.418 127.699 298.917 127.699 299.477V299.661C127.699 300.28 127.805 300.813 128.019 301.261C128.232 301.709 128.555 302.056 128.987 302.301C129.424 302.541 129.979 302.661 130.651 302.661C130.901 302.661 131.165 302.642 131.443 302.605C131.725 302.562 132.003 302.498 132.275 302.413C132.552 302.328 132.816 302.216 133.067 302.077L133.123 303.269C132.92 303.381 132.685 303.48 132.419 303.565C132.152 303.645 131.859 303.706 131.539 303.749C131.219 303.797 130.88 303.821 130.523 303.821ZM126.915 299.941V298.997L132.403 298.949L133.211 299.253V299.941H126.915ZM134.464 303.645C134.704 303.282 134.912 302.97 135.088 302.709C135.269 302.442 135.437 302.192 135.592 301.957C135.752 301.717 135.923 301.464 136.104 301.197L137.304 299.405L137.32 299.781L136.144 298.077C135.957 297.81 135.781 297.56 135.616 297.325C135.456 297.09 135.285 296.845 135.104 296.589C134.928 296.333 134.725 296.04 134.496 295.709L135.992 295.653C136.243 296.026 136.464 296.362 136.656 296.661C136.853 296.96 137.061 297.277 137.28 297.613L138.128 298.893H138.24L139.08 297.613C139.293 297.277 139.496 296.965 139.688 296.677C139.88 296.384 140.091 296.061 140.32 295.709H141.84C141.6 296.05 141.392 296.346 141.216 296.597C141.045 296.842 140.883 297.074 140.728 297.293C140.573 297.512 140.403 297.754 140.216 298.021L139.016 299.733L138.952 299.381L140.288 301.205C140.571 301.594 140.843 301.97 141.104 302.333C141.371 302.69 141.693 303.128 142.072 303.645H140.472C140.232 303.298 140.016 302.986 139.824 302.709C139.632 302.426 139.416 302.114 139.176 301.773L138.208 300.365H138.096L137.216 301.709C136.987 302.061 136.776 302.384 136.584 302.677C136.397 302.965 136.187 303.288 135.952 303.645H134.464ZM146.9 303.821C146.372 303.821 145.924 303.73 145.556 303.549C145.188 303.362 144.908 303.082 144.716 302.709C144.529 302.33 144.436 301.848 144.436 301.261C144.436 300.797 144.436 300.338 144.436 299.885C144.436 299.426 144.436 298.978 144.436 298.541C144.436 298.098 144.436 297.674 144.436 297.269C144.436 296.858 144.436 296.466 144.436 296.093C144.436 295.549 144.436 295.045 144.436 294.581C144.436 294.117 144.436 293.634 144.436 293.133L145.74 292.845C145.74 293.24 145.74 293.605 145.74 293.941C145.74 294.277 145.74 294.616 145.74 294.957C145.74 295.298 145.74 295.677 145.74 296.093V300.949C145.74 301.52 145.86 301.949 146.1 302.237C146.345 302.525 146.718 302.669 147.22 302.669C147.417 302.669 147.633 302.637 147.868 302.573C148.102 302.504 148.31 302.397 148.492 302.253L148.604 303.413C148.497 303.493 148.353 303.565 148.172 303.629C147.99 303.688 147.79 303.733 147.572 303.765C147.353 303.802 147.129 303.821 146.9 303.821ZM142.908 296.757V295.709H148.524V296.757C147.99 296.757 147.452 296.757 146.908 296.757C146.369 296.757 145.844 296.757 145.332 296.757H144.788H142.908ZM150.966 303.821C150.747 303.821 150.558 303.776 150.398 303.685C150.243 303.594 150.123 303.472 150.038 303.317C149.953 303.162 149.91 302.981 149.91 302.773C149.91 302.458 150.006 302.208 150.198 302.021C150.39 301.834 150.646 301.741 150.966 301.741C151.19 301.741 151.379 301.784 151.534 301.869C151.689 301.954 151.809 302.074 151.894 302.229C151.985 302.384 152.03 302.565 152.03 302.773C152.03 303.082 151.934 303.336 151.742 303.533C151.555 303.725 151.297 303.821 150.966 303.821Z" fill="#333333" fill-opacity="0.5"/>
<defs>
<filter id="filter0_d_111_399" x="0" y="0.887207" width="366" height="431.895" filterUnits="userSpaceOnUse" color-interpolation-filters="sRGB">
<feFlood flood-opacity="0" result="BackgroundImageFix"/>
<feColorMatrix in="SourceAlpha" type="matrix" values="0 0 0 0 0 0 0 0 0 0 0 0 0 0 0 0 0 0 127 0" result="hardAlpha"/>
<feOffset dy="24"/>
<feGaussianBlur stdDeviation="24"/>
<feColorMatrix type="matrix" values="0 0 0 0 0 0 0 0 0 0 0 0 0 0 0 0 0 0 0.04 0"/>
<feBlend mode="normal" in2="BackgroundImageFix" result="effect1_dropShadow_111_399"/>
<feBlend mode="normal" in="SourceGraphic" in2="effect1_dropShadow_111_399" result="shape"/>
</filter>
</defs>
</svg>
